# xmcd
#
# Track frame offsets: 
#        150
#        15383
#        36937
#        63436
#        78217
#        108898
#        128654
#        144587
#        163980
#        186529
#        194592
#        220459
#        246101
#        273330
#        291109
#        302220
#        322568
#        346638
#
# Disc length: 4781 seconds
#
# Revision: 0
# Processed by: cddbd v1.5.2PL0 Copyright (c) Steve Scherf et al.
# Submitted via: ExactAudioCopy v0.99pb5
#
DISCID=0412ab12
DTITLE=Michael Nesmith - Live At The Britt Festival
DYEAR=2012
DGENRE=Singer/Songwriter
TTITLE0=Two Different Roads
TTITLE1=Papa Gene's Blues
TTITLE2=Propinquity
TTITLE3=Some Of Shelly's Blues
TTITLE4=Joanne
TTITLE5=Tomorrow And Me
TTITLE6=The Upside Of Goodbye
TTITLE7=Harmony Constant
TTITLE8=Silver Moon
TTITLE9=Second Concerts
TTITLE10=Yellow Butterfly
TTITLE11=Moon Over The Rio Grande
TTITLE12=Juliana
TTITLE13=Laugh Hills Lonesome
TTITLE14=I Am Not That
TTITLE15=Rising In Love
TTITLE16=Rio
TTITLE17=Different Drum
EXTD=
EXTT0=
EXTT1=
EXTT2=
EXTT3=
EXTT4=
EXTT5=
EXTT6=
EXTT7=
EXTT8=
EXTT9=
EXTT10=
EXTT11=
EXTT12=
EXTT13=
EXTT14=
EXTT15=
EXTT16=
EXTT17=
PLAYORDER=
